<svg xmlns="http://www.w3.org/2000/svg" width="16.234" height="20" viewBox="0 0 16.234 20"><defs><style>.a{fill:#ff6794;}</style></defs><g transform="translate(-0.008)"><path class="a" d="M2.155,20A2.157,2.157,0,0,1,0,17.845V2.155A2.157,2.157,0,0,1,2.155,0h7.887V4.037A2.157,2.157,0,0,0,12.2,6.193h4.037V17.845A2.157,2.157,0,0,1,14.08,20Zm5.377-3.1a.587.587,0,0,0,.586.586h5.021a.586.586,0,0,0,0-1.172H8.117A.587.587,0,0,0,7.531,16.9ZM2.51,14.393V16.9a.587.587,0,0,0,.586.586H5.607a.587.587,0,0,0,.586-.586V14.393a.587.587,0,0,0-.586-.586H3.1A.587.587,0,0,0,2.51,14.393Zm5.021,0a.587.587,0,0,0,.586.587h2.51a.586.586,0,0,0,0-1.173H8.117A.587.587,0,0,0,7.531,14.393Zm0-2.51a.587.587,0,0,0,.586.586h5.021a.586.586,0,0,0,0-1.172H8.117A.587.587,0,0,0,7.531,11.883ZM2.51,9.373v2.51a.587.587,0,0,0,.586.586H5.607a.587.587,0,0,0,.586-.586V9.373a.587.587,0,0,0-.586-.586H3.1A.587.587,0,0,0,2.51,9.373Zm5.021,0a.587.587,0,0,0,.586.586h2.51a.586.586,0,1,0,0-1.172H8.117A.587.587,0,0,0,7.531,9.373ZM2.51,6.234A.587.587,0,0,0,3.1,6.82H8.117a.586.586,0,1,0,0-1.172H3.1A.587.587,0,0,0,2.51,6.234Zm0-2.51A.587.587,0,0,0,3.1,4.31H6.234a.586.586,0,0,0,0-1.172H3.1A.587.587,0,0,0,2.51,3.724ZM3.682,16.318V14.98H5.021v1.338Zm0-5.021V9.958H5.021V11.3ZM12.2,5.021a.985.985,0,0,1-.984-.984V.343l4.678,4.678Z" transform="translate(0.008)"/></g></svg>