<svg xmlns="http://www.w3.org/2000/svg" width="21.35" height="21.192" viewBox="0 0 21.35 21.192"><defs><style>.a{fill:#424a52;}</style></defs><g transform="translate(0 -0.178)"><path class="a" d="M11.591,1.683,1.815.2A1.577,1.577,0,0,0,.552.545,1.591,1.591,0,0,0,0,1.737V20.48a.892.892,0,0,0,.89.89H3.781V16.7a1.553,1.553,0,0,1,1.557-1.557H7.562A1.553,1.553,0,0,1,9.118,16.7v4.67H12.9V3.222a1.558,1.558,0,0,0-1.308-1.539Zm-6.7,11.458H3.558a.667.667,0,0,1,0-1.334H4.893a.667.667,0,1,1,0,1.334Zm0-2.669H3.558a.667.667,0,0,1,0-1.334H4.893a.667.667,0,0,1,0,1.334Zm0-2.669H3.558a.667.667,0,1,1,0-1.334H4.893a.667.667,0,1,1,0,1.334Zm0-2.669H3.558a.667.667,0,1,1,0-1.334H4.893a.667.667,0,1,1,0,1.334Zm4.448,8.006H8.006a.667.667,0,1,1,0-1.334H9.341a.667.667,0,1,1,0,1.334Zm0-2.669H8.006a.667.667,0,1,1,0-1.334H9.341a.667.667,0,0,1,0,1.334Zm0-2.669H8.006a.667.667,0,1,1,0-1.334H9.341a.667.667,0,1,1,0,1.334Zm0-2.669H8.006a.667.667,0,1,1,0-1.334H9.341a.667.667,0,1,1,0,1.334Z"/><path class="a" d="M21.834,10.677,15.5,9.351V22.383h6a1.558,1.558,0,0,0,1.557-1.557V12.2A1.549,1.549,0,0,0,21.834,10.677Zm-2.108,9.036H18.391a.667.667,0,0,1,0-1.334h1.334a.667.667,0,1,1,0,1.334Zm0-2.669H18.391a.667.667,0,0,1,0-1.334h1.334a.667.667,0,0,1,0,1.334Zm0-2.669H18.391a.667.667,0,0,1,0-1.334h1.334a.667.667,0,1,1,0,1.334Z" transform="translate(-1.711 -1.013)"/></g></svg>