<svg xmlns="http://www.w3.org/2000/svg" width="16.975" height="17.439" viewBox="0 0 16.975 17.439">
  <g id="Icon_search_outline" transform="translate(-0.465)">
    <g id="Shape" transform="translate(0.465 0)" fill="#1f2752">
      <path d="M 7 13.5 C 3.415889978408813 13.5 0.5 10.58411026000977 0.5 7 C 0.5 3.415889978408813 3.415889978408813 0.5 7 0.5 C 10.58411026000977 0.5 13.5 3.415889978408813 13.5 7 C 13.5 10.58411026000977 10.58411026000977 13.5 7 13.5 Z M 7 1.249799966812134 C 3.829329967498779 1.249799966812134 1.249799966812134 3.829329967498779 1.249799966812134 7 C 1.249799966812134 10.17066955566406 3.829329967498779 12.75020027160645 7 12.75020027160645 C 10.17066955566406 12.75020027160645 12.75020027160645 10.17066955566406 12.75020027160645 7 C 12.75020027160645 3.829329967498779 10.17066955566406 1.249799966812134 7 1.249799966812134 Z" stroke="none"/>
      <path d="M 7 14 C 3.14018988609314 14 -8.881784197001252e-16 10.85980987548828 -8.881784197001252e-16 7 C -8.881784197001252e-16 3.14018988609314 3.14018988609314 -8.881784197001252e-16 7 -8.881784197001252e-16 C 10.85980987548828 -8.881784197001252e-16 14 3.14018988609314 14 7 C 14 10.85980987548828 10.85980987548828 14 7 14 Z M 7 1.749799966812134 C 4.105030059814453 1.749799966812134 1.749799966812134 4.105030059814453 1.749799966812134 7 C 1.749799966812134 9.894969940185547 4.105030059814453 12.25020027160645 7 12.25020027160645 C 9.894969940185547 12.25020027160645 12.25020027160645 9.894969940185547 12.25020027160645 7 C 12.25020027160645 4.105030059814453 9.894969940185547 1.749799966812134 7 1.749799966812134 Z" stroke="none" fill="#1f2752"/>
    </g>
    <g id="Path" transform="translate(10.688 10.688)" fill="#1f2752">
      <path d="M 5.907485961914063 6.251386165618896 C 5.815616130828857 6.251386165618896 5.729246139526367 6.215616226196289 5.66429615020752 6.150676250457764 L 0.6007161736488342 1.087096214294434 C 0.4666261970996857 0.9529961943626404 0.4666261970996857 0.7348161935806274 0.6007161736488342 0.6007161736488342 C 0.6656661629676819 0.5357761979103088 0.7520361542701721 0.5000061988830566 0.8439061641693115 0.5000061988830566 C 0.9357761740684509 0.5000061988830566 1.022146224975586 0.5357761979103088 1.087096214294434 0.6007161736488342 L 6.150676250457764 5.66429615020752 C 6.28476619720459 5.798396110534668 6.28476619720459 6.016576290130615 6.150676250457764 6.150676250457764 C 6.085726261138916 6.215616226196289 5.999356269836426 6.251386165618896 5.907485961914063 6.251386165618896 Z" stroke="none"/>
      <path d="M 0.8439064025878906 3.814697265625e-06 C 1.05988883972168 3.814697265625e-06 1.275871276855469 0.08239126205444336 1.440646171569824 0.2471661567687988 L 6.504226207733154 5.310746192932129 C 6.833775997161865 5.64029598236084 6.833775997161865 6.174675941467285 6.504226207733154 6.504226207733154 C 6.339451313018799 6.66900110244751 6.12346887588501 6.751388549804688 5.907485961914063 6.751388549804688 C 5.691503524780273 6.751388549804688 5.475521087646484 6.66900110244751 5.310746192932129 6.504226207733154 L 0.2471661567687988 1.440646171569824 C -0.08238363265991211 1.111096382141113 -0.08238363265991211 0.5767159461975098 0.2471661567687988 0.2471661567687988 C 0.4119410514831543 0.08239126205444336 0.6279234886169434 3.814697265625e-06 0.8439064025878906 3.814697265625e-06 Z" stroke="none" fill="#1f2752"/>
    </g>
  </g>
</svg>
