<svg xmlns="http://www.w3.org/2000/svg" width="20" height="20" viewBox="0 0 20 20"><defs><style>.a{fill:#ffdfdf;}.b{fill:#f44336;}</style></defs><path class="a" d="M16.25,20H3.75A3.75,3.75,0,0,1,0,16.25V3.75A3.75,3.75,0,0,1,3.75,0h12.5A3.75,3.75,0,0,1,20,3.75v12.5A3.75,3.75,0,0,1,16.25,20Z"/><g transform="translate(6.019 6.019)"><path class="b" d="M7.715,6.52A.845.845,0,1,1,6.52,7.715L3.981,5.176,1.442,7.715A.845.845,0,0,1,.248,6.52L2.787,3.981.248,1.442A.845.845,0,0,1,1.442.248L3.981,2.787,6.52.248A.845.845,0,0,1,7.715,1.442L5.176,3.981Z" transform="translate(0 0)"/></g></svg>