<svg xmlns="http://www.w3.org/2000/svg" xmlns:xlink="http://www.w3.org/1999/xlink" width="111" height="37.258" viewBox="0 0 111 37.258"><defs><style>.a,.b,.d,.f,.i{fill:none;}.a{stroke:#2d364c;}.b{stroke:#fbb03b;}.c{fill:#fff;font-size:31px;font-family:CircularStd-Book, Circular Std Book;}.d{stroke:#fff;stroke-width:3.5px;}.e{clip-path:url(#a);}.g{clip-path:url(#b);}.h,.j,.k{stroke:none;}.j{fill:#2d364c;}.k{fill:#fbb03b;}</style><clipPath id="a"><path class="a" d="M3355.039-2181.432l-14.121,18.544,14.971,18.714Z" transform="translate(-3342.262 2178.089)"/></clipPath><clipPath id="b"><path class="b" d="M3352.505-2181.432l-11.587,15.217,12.285,15.356Z" transform="translate(-3340.918 2181.432)"/></clipPath></defs><g transform="translate(-72.5 -33.084)"><text class="c" transform="translate(106.5 59)"><tspan x="0" y="0">circle</tspan></text><g class="d" transform="translate(72.5 39)"><circle class="h" cx="13" cy="13" r="13"/><circle class="i" cx="13" cy="13" r="11.25"/></g><g class="e" transform="translate(88.121 36.427)"><g class="f" transform="translate(-15.621 2.573)"><path class="h" d="M13,0A13,13,0,1,1,0,13,13,13,0,0,1,13,0Z"/><path class="j" d="M 13 3.5 C 7.761680603027344 3.5 3.5 7.761680603027344 3.5 13 C 3.5 18.23831939697266 7.761680603027344 22.5 13 22.5 C 18.23831939697266 22.5 22.5 18.23831939697266 22.5 13 C 22.5 7.761680603027344 18.23831939697266 3.5 13 3.5 M 13 0 C 20.1796989440918 0 26 5.82029914855957 26 13 C 26 20.1796989440918 20.1796989440918 26 13 26 C 5.82029914855957 26 0 20.1796989440918 0 13 C 0 5.82029914855957 5.82029914855957 0 13 0 Z"/></g></g><g class="g" transform="translate(88.121 36.427)"><g class="f" transform="translate(-15.621 2.573)"><path class="h" d="M13,0A13,13,0,1,1,0,13,13,13,0,0,1,13,0Z"/><path class="k" d="M 13 3.5 C 7.761680603027344 3.5 3.5 7.761680603027344 3.5 13 C 3.5 18.23831939697266 7.761680603027344 22.5 13 22.5 C 18.23831939697266 22.5 22.5 18.23831939697266 22.5 13 C 22.5 7.761680603027344 18.23831939697266 3.5 13 3.5 M 13 0 C 20.1796989440918 0 26 5.82029914855957 26 13 C 26 20.1796989440918 20.1796989440918 26 13 26 C 5.82029914855957 26 0 20.1796989440918 0 13 C 0 5.82029914855957 5.82029914855957 0 13 0 Z"/></g></g></g></svg>